<?xml version="1.0" encoding="UTF-8"?>
<svg width="128px" height="128px" viewBox="0 0 128 128" version="1.1" xmlns="http://www.w3.org/2000/svg" xmlns:xlink="http://www.w3.org/1999/xlink">
    <!-- Generator: Sketch 58 (84663) - https://sketch.com -->
    <title>icon-16</title>
    <desc>Created with Sketch.</desc>
    <g id="Page-1" stroke="none" stroke-width="1" fill="none" fill-rule="evenodd">
        <g id="icon" fill="#0366D6" fill-rule="nonzero">
            <path d="M64,0 C99.346224,0 128,28.653776 128,64 C128,99.346224 99.346224,128 64,128 C28.653776,128 0,99.346224 0,64 C0,28.653776 28.653776,0 64,0 Z M64,13.5757576 C36.1514599,13.5757576 13.5757576,36.1514599 13.5757576,64 C13.5757576,91.8485401 36.1514599,114.424242 64,114.424242 C91.8485401,114.424242 114.424242,91.8485401 114.424242,64 C114.424242,36.1514599 91.8485401,13.5757576 64,13.5757576 Z M67.5555556,35.5555556 L67.5555556,65.7777778 L92.4444444,80.5333333 L87.3244444,89.1733333 L56.8888889,71.1111111 L56.8888889,35.5555556 L67.5555556,35.5555556 Z" id="icon-16"></path>
        </g>
    </g>
</svg>