<?xml version="1.0" encoding="UTF-8"?>
<svg width="128px" height="128px" viewBox="0 0 128 128" version="1.1" xmlns="http://www.w3.org/2000/svg" xmlns:xlink="http://www.w3.org/1999/xlink">
    <!-- Generator: Sketch 58 (84663) - https://sketch.com -->
    <title>icon-</title>
    <desc>Created with Sketch.</desc>
    <g id="Page-1" stroke="none" stroke-width="1" fill="none" fill-rule="evenodd">
        <g id="icon-">
            <circle id="Oval" fill="#0366D6" cx="64" cy="64" r="64"></circle>
            <g id="Group-5" fill-rule="nonzero">
                <path d="M67.216892,43.3348517 C67.216892,40.6094084 65.0640774,38.4 62.408446,38.4 C59.7528146,38.4 57.6,40.6094084 57.6,43.3348517 L57.6,71.0433993 C57.6,72.7859531 58.4954692,74.3993293 59.9559319,75.2881067 L82.3382896,88.9090856 C84.6225281,90.2991789 87.5722972,89.5256519 88.9267833,87.1813647 C90.2812695,84.8370776 89.5275563,81.8097641 87.2433178,80.4196709 L67.216892,68.2324148 L67.216892,43.3348517 Z" id="Path-2" fill="#F9F9F9"></path>
                <path d="M64,128 C99.346224,128 128,99.346224 128,64 C128,28.653776 99.346224,0 64,0 C28.653776,0 0,28.653776 0,64 C0,99.346224 28.653776,128 64,128 Z M64,115.2 C35.7230208,115.2 12.8,92.2769792 12.8,64 C12.8,35.7230208 35.7230208,12.8 64,12.8 C92.2769792,12.8 115.2,35.7230208 115.2,64 C115.2,92.2769792 92.2769792,115.2 64,115.2 Z" id="Oval" fill="#FFFFFF" opacity="0.245117188"></path>
            </g>
        </g>
    </g>
</svg>