<svg width="269" height="56" viewBox="0 0 269 56" fill="none" xmlns="http://www.w3.org/2000/svg">
<path d="M9.89995 0.600098C15.3 0.600098 19.6 5.0001 19.6 10.3001C19.6 15.7001 15.2 20.0001 9.89995 20.0001C4.49995 20.0001 0.199951 15.6001 0.199951 10.3001C0.199951 4.9001 4.49995 0.600098 9.89995 0.600098Z" fill="currentColor"/>
<path d="M36.4999 0.600098C41.8999 0.600098 46.1999 5.0001 46.1999 10.3001C46.1999 15.7001 41.7999 20.0001 36.4999 20.0001C31.0999 20.0001 26.7999 15.6001 26.7999 10.3001C26.7999 4.9001 31.0999 0.600098 36.4999 0.600098Z" fill="#28282D"/>
<path d="M9.89995 27.1001C15.3 27.1001 19.6 31.5001 19.6 36.8001C19.6 42.2001 15.2 46.5001 9.89995 46.5001C4.49995 46.5001 0.199951 42.1001 0.199951 36.8001C0.199951 31.5001 4.49995 27.1001 9.89995 27.1001Z" fill="#0000FF"/>
<path d="M36.4999 27.1001C41.8999 27.1001 46.1999 31.5001 46.1999 36.8001C46.1999 42.2001 41.7999 46.5001 36.4999 46.5001C31.0999 46.5001 26.7999 42.1001 26.7999 36.8001C26.7999 31.5001 31.0999 27.1001 36.4999 27.1001Z" fill="#FF3300"/>
<path d="M91.4 14.4C91.4 4.8 84.9 2 72.2 2H58.5V45.1H66.1V27H73.4C74.2 27 74.9 27 75.7 26.9L84.8 45.1H93.3L83.4 25.5C88.6 23.7 91.4 20 91.4 14.4ZM73.5 21H66V8.1H73.3C79.3 8.1 83.7 8.9 83.7 14.5C83.6 19.7 79.9 21 73.5 21Z" fill="#28282D"/>
<path d="M108.6 12.3999C99.5 12.3999 92.9 19.1999 92.9 28.8999C92.9 38.0999 98.8 45.8999 109.1 45.8999C117.4 45.8999 122.1 40.6999 123.6 35.4999H116.6C115.4 38.4999 112.4 39.9999 108.7 39.9999C104.7 39.9999 100.5 37.0999 100 31.0999H123.9C124.6 20.3999 118.4 12.3999 108.6 12.3999ZM100.1 25.9999C100.7 19.8999 105.3 17.9999 108.6 17.9999C112.8 17.9999 116.6 20.9999 116.8 25.9999H100.1Z" fill="#28282D"/>
<path d="M150.9 16.1C148.7 13.9 145.8 12.7 142.5 12.5C142.1 12.5 141.8 12.5 141.4 12.5C133.8 12.5 127.5 19 127.5 29.2C127.5 39.5 133.9 46 141.4 46C141.8 46 142.2 46 142.6 45.9C146 45.7 148.8 44.4 150.9 42.2V45.1H158V2H150.9V16.1ZM134.5 29.1C134.5 22.4 137.9 18.2 142.6 18.2C147.2 18.2 150.9 21.8 150.9 29.1C150.9 36.4 147.3 40.1 142.6 40.1C137.9 40.1 134.5 35.9 134.5 29.1Z" fill="#28282D"/>
<path d="M170.9 2H163.8V9.1H170.9V2Z" fill="#28282D"/>
<path d="M163.8 45.9001C163.8 49.3001 163.4 50.1001 160.5 50.1001H159.2V55.6001H161.6C168.9 55.6001 170.9 53.7001 170.9 45.7001V13.1001H163.8V45.9001Z" fill="#28282D"/>
<path d="M203.2 25.9C203.4 15.7 197.4 12.2 189.7 12.2C182 12.2 176.5 16.6999 176.1 23.1999H183.1C183.3 19.2999 186 17.4 189.5 17.4C193 17.4 196.2 19.1 196.2 24.5V25.0999C184.5 26.2999 174.7 28.3 174.7 36.3C174.7 42.1 179.6 45.9 186.5 45.9C191.2 45.9 195 44.2 197 40.8C197.1 43 197.4 43.7999 197.6 45.0999H204.1C203.5 42.3999 203.1 38.1999 203.1 34.1999C203 31.2999 203.2 27.5 203.2 25.9ZM196.3 32.5C196.3 37.9 193.2 40.5999 188 40.5999C183.7 40.5999 181.4 38.8999 181.4 36.0999C181.4 32.3999 186.2 31 196.4 30V32.5H196.3Z" fill="#28282D"/>
<path d="M221.7 39.9999C217.5 39.9999 213.5 36.6999 213.5 29.0999C213.5 21.4999 217.5 18.2999 221.9 18.2999C225.8 18.2999 228.7 20.6999 229.3 24.0999H236.2C235 16.9999 228.8 12.3999 221.9 12.3999C212.4 12.3999 206.2 19.6999 206.2 29.1999C206.2 38.6999 212.3 45.8999 221.6 45.8999C228.4 45.8999 235 41.6999 236.5 34.1999H229.6C228.7 38.4999 225.2 39.9999 221.7 39.9999Z" fill="#28282D"/>
<path d="M246.6 27.8001L260.3 45.1001H268.6L254.9 27.9001L267.2 13.1001H258.7L246.6 27.8001Z" fill="#28282D"/>
<path d="M246.6 26.2V2H239.5V45.1H246.6V26.2Z" fill="#28282D"/>
</svg>
