<svg width="24" height="24" viewBox="0 0 24 24" fill="none" xmlns="http://www.w3.org/2000/svg">
<g opacity="0.40146">
<path fill-rule="evenodd" clip-rule="evenodd" d="M20.806 2.75361C20.4717 2.41454 19.9273 2.41932 19.5882 2.75361L16.5318 5.81004C12.7447 4.0908 8.70446 4.51106 4.8505 7.02783C1.98033 8.89989 0.237214 11.2543 0.165579 11.3546C-0.0636529 11.6698 -0.0541016 12.0996 0.189457 12.4052C1.82273 14.411 3.53242 15.9726 5.28031 17.0615L2.59162 19.7502C2.25732 20.0845 2.25732 20.6289 2.59162 20.968C2.75876 21.1351 2.97844 21.2211 3.19812 21.2211C3.41781 21.2211 3.63749 21.1351 3.80463 20.968L20.806 3.97141C21.1403 3.63711 21.1403 3.09269 20.806 2.75361ZM9.57363 12.7682C9.44947 12.4864 9.38738 12.1808 9.38738 11.8608C9.38738 11.2447 9.62617 10.6621 10.0655 10.2228C10.7532 9.53506 11.7704 9.37268 12.611 9.73086L9.57363 12.7682ZM8.85251 9.00496C10.2136 7.64389 12.3196 7.46242 13.8813 8.46531L15.2232 7.12335C12.1382 5.94376 8.9719 6.39267 5.79131 8.46531C3.95268 9.664 2.61072 11.1015 1.97555 11.8465C3.46079 13.58 4.989 14.9077 6.54109 15.8055L8.31286 14.0337C7.89738 13.389 7.67292 12.6392 7.67292 11.856C7.67292 10.7815 8.0884 9.76906 8.85251 9.00496Z" fill="#4A4A4A"/>
<path d="M23.2129 11.3163C22.0333 9.86452 20.8107 8.64195 19.569 7.67249C19.1918 7.38118 18.6521 7.44804 18.356 7.82054C18.0647 8.19304 18.1316 8.73269 18.5041 9.02878C19.4879 9.79766 20.4716 10.7528 21.4268 11.8703C20.8633 12.5293 19.7648 13.7137 18.2748 14.7978C15.4047 16.8847 12.5058 17.6393 9.66432 17.0376C9.20108 16.9373 8.74262 17.2381 8.64711 17.7014C8.54682 18.1646 8.84768 18.6231 9.31092 18.7186C10.0512 18.8762 10.7962 18.9526 11.5459 18.9526C12.673 18.9526 13.8096 18.7759 14.9414 18.4225C16.4267 17.9593 17.9023 17.1952 19.3303 16.1541C21.7372 14.3918 23.1747 12.4482 23.2368 12.367C23.466 12.0518 23.4564 11.622 23.2129 11.3163Z" fill="#4A4A4A"/>
</g>
</svg>
