<svg width="13px" height="17px" viewBox="0 0 13 17" version="1.1" xmlns="http://www.w3.org/2000/svg" xmlns:xlink="http://www.w3.org/1999/xlink">
    <g id="Page-1" stroke="none" stroke-width="1" fill="none" fill-rule="evenodd">
        <g id="issue_page" transform="translate(-1196.000000, -396.000000)" fill="#959DA5" fill-rule="nonzero">
            <g id="Group" transform="translate(1196.000000, 396.000000)">
                <path d="M11.8181818,1.14705882 L9.45454545,1.14705882 C9.45454545,0.516176471 8.92272727,0 8.27272727,0 L4.72727273,0 C4.07727273,0 3.54545455,0.516176471 3.54545455,1.14705882 L1.18181818,1.14705882 C0.531818182,1.14705882 0,1.66323529 0,2.29411765 L0,3.44117647 C0,4.07205882 0.531818182,4.58823529 1.18181818,4.58823529 L1.18181818,14.9117647 C1.18181818,15.5426471 1.71363636,16.0588235 2.36363636,16.0588235 L10.6363636,16.0588235 C11.2863636,16.0588235 11.8181818,15.5426471 11.8181818,14.9117647 L11.8181818,4.58823529 C12.4681818,4.58823529 13,4.07205882 13,3.44117647 L13,2.29411765 C13,1.66323529 12.4681818,1.14705882 11.8181818,1.14705882 Z M10.6363636,14.9117647 L2.36363636,14.9117647 L2.36363636,4.58823529 L3.54545455,4.58823529 L3.54545455,13.7647059 L4.72727273,13.7647059 L4.72727273,4.58823529 L5.90909091,4.58823529 L5.90909091,13.7647059 L7.09090909,13.7647059 L7.09090909,4.58823529 L8.27272727,4.58823529 L8.27272727,13.7647059 L9.45454545,13.7647059 L9.45454545,4.58823529 L10.6363636,4.58823529 L10.6363636,14.9117647 Z M11.8181818,3.44117647 L1.18181818,3.44117647 L1.18181818,2.29411765 L11.8181818,2.29411765 L11.8181818,3.44117647 Z" id="Shape"></path>
            </g>
        </g>
    </g>
</svg>