<svg width="24" height="24" viewBox="0 0 24 24" fill="none" xmlns="http://www.w3.org/2000/svg">
<g id="icon/action/offline_bolt_24px">
<path id="icon/action/offline_bolt_24px_2" fill-rule="evenodd" clip-rule="evenodd" d="M12 2.01953C6.49002 2.01953 2.02002 6.48953 2.02002 11.9995C2.02002 17.5095 6.49002 21.9795 12 21.9795C17.51 21.9795 21.98 17.5095 21.98 11.9995C21.98 6.48953 17.51 2.01953 12 2.01953ZM12 19.9795C7.60002 19.9795 4.02002 16.3995 4.02002 11.9995C4.02002 7.59953 7.60002 4.01953 12 4.01953C16.4 4.01953 19.98 7.59953 19.98 11.9995C19.98 16.3995 16.4 19.9795 12 19.9795ZM8.25002 13.4995L12.75 4.99953V10.4995H15.75L11.39 18.9995V13.4995H8.25002Z" fill="#FF1B04"/>
</g>
</svg>
