<svg width="18" height="18" viewBox="0 0 18 18" fill="none" xmlns="http://www.w3.org/2000/svg">
<path d="M9.98438 9.98438V3.98438H8.01562V9.98438H9.98438ZM8.0625 13.9219C8.34375 14.1719 8.65625 14.2969 9 14.2969C9.34375 14.2969 9.64062 14.1719 9.89062 13.9219C10.1719 13.6406 10.3125 13.3281 10.3125 12.9844C10.3125 12.6406 10.1719 12.3438 9.89062 12.0938C9.64062 11.8438 9.34375 11.7188 9 11.7188C8.65625 11.7188 8.34375 11.8438 8.0625 12.0938C7.8125 12.3438 7.6875 12.6406 7.6875 12.9844C7.6875 13.3281 7.8125 13.6406 8.0625 13.9219ZM12.75 0L18 5.25V12.75L12.75 18H5.25L0 12.75V5.25L5.25 0H12.75Z" fill="#FF1F00"/>
</svg>
